<svg width="24" height="24" viewBox="0 0 24 24" fill="none" xmlns="http://www.w3.org/2000/svg">
<g clip-path="url(#clip0_1_57)">
<path d="M21.7 11.046L13.1 4.4184C12.9 4.31798 12.8 4.21756 12.6 4.11714C12.4 4.01672 12.2 4.01672 12 4.01672C11.8 4.01672 11.6 4.01672 11.4 4.11714C11.2 4.21756 11 4.31798 10.9 4.4184L2.3 11.046C2.1 11.1464 2 11.3473 2 11.5481C2 11.7489 2 11.9498 2.1 12.1506C2.2 12.3515 2.4 12.4519 2.6 12.4519C2.8 12.4519 3 12.4519 3.2 12.251L4.5 11.2468V18.7782C4.5 19.2803 4.7 19.682 5 20.0837C5.3 20.4853 5.8 20.5858 6.3 20.5858H17.2C16.9 20.4853 16.6 20.3849 16.4 20.0837L15.4 19.0795H6.4C6.3 19.0795 6.2 19.0795 6.2 18.9791C6 18.9791 6 18.8786 6 18.7782V10.1422L11.8 5.72384C11.9 5.72384 11.9 5.62342 12 5.62342C12.1 5.62342 12.1 5.62342 12.2 5.72384L18 10.1422V16.2678L19.1 17.3724C19.3 17.5732 19.4 17.774 19.5 17.9749V11.3473L20.8 12.3515C21 12.4519 21.1 12.5523 21.3 12.5523C21.5 12.5523 21.7 12.4519 21.8 12.251C21.9 12.0502 22 11.8494 22 11.6485C21.9 11.3473 21.9 11.2468 21.7 11.046Z" fill="#9B7568"/>
<path d="M12.1 16.1674C11.2 16.1674 10.5 15.8661 9.9 15.2636C9.3 14.6611 9 13.9582 9 13.0544C9 12.954 9 12.8536 9 12.7531C9 12.6527 9 12.5523 9.1 12.4519C9.1 12.3515 9.2 12.3515 9.2 12.251C9.2 12.1506 9.3 12.1506 9.4 12.1506C9.5 12.1506 9.5 12.1506 9.6 12.1506C9.7 12.1506 9.7 12.251 9.8 12.251L11.4 13.8577L13 12.251L11.5 10.6444C11.5 10.6444 11.4 10.5439 11.4 10.4435C11.4 10.3431 11.4 10.3431 11.4 10.2427C11.4 10.1423 11.4 10.1423 11.5 10.0418C11.5 10.0418 11.6 9.94142 11.7 9.94142C11.8 9.94142 11.9 9.841 12 9.841C12.1 9.841 12.2 9.841 12.3 9.841C13.2 9.841 13.9 10.1423 14.5 10.7448C15.1 11.3473 15.4 12.0502 15.4 12.954C15.4 13.2552 15.4 13.4561 15.3 13.7573C15.2 13.9582 15.2 14.2594 15 14.4602L18.5 17.9749C18.7 18.1757 18.8 18.3766 18.8 18.6778C18.8 18.9791 18.7 19.1799 18.5 19.3808C18.3 19.5816 18.1 19.682 17.8 19.682C17.5 19.682 17.3 19.5816 17.1 19.3808L13.6 15.8661C13.4 15.9665 13.1 16.0669 12.9 16.1674C12.6 16.1674 12.4 16.1674 12.1 16.1674Z" fill="#9B7568"/>
</g>
<defs>
<clipPath id="clip0_1_57">
<rect width="24" height="24" fill="white"/>
</clipPath>
</defs>
</svg>
