<svg width="24" height="24" viewBox="0 0 24 24" fill="none" xmlns="http://www.w3.org/2000/svg">
<g clip-path="url(#clip0_1_48)">
<path d="M4.5 18.7782V11.2469L3.2 12.251C3 12.3515 2.8 12.4519 2.6 12.4519C2.4 12.4519 2.2 12.3515 2.1 12.1506C2.1 11.9498 2 11.749 2 11.5481C2 11.3473 2.1 11.1464 2.3 11.046L10.9 4.41841C11.1 4.31799 11.2 4.21758 11.4 4.11716C11.6 4.01674 11.8 4.01674 12 4.01674C12.2 4.01674 12.4 4.01674 12.6 4.11716C12.8 4.21758 13 4.31799 13.1 4.41841L21.7 11.046C21.9 11.1464 22 11.3473 22 11.5481C22 11.749 22 11.9498 21.8 12.1506C21.7 12.3515 21.5 12.4519 21.3 12.4519C21.1 12.4519 20.9 12.4519 20.8 12.251L19.5 11.2469V18.7782C19.5 19.2803 19.3 19.682 19 20.0837C18.6 20.4854 18.2 20.5858 17.7 20.5858H6.3C5.8 20.5858 5.4 20.3849 5 20.0837C4.7 19.682 4.5 19.2803 4.5 18.7782ZM6.3 19.0795H17.7C17.8 19.0795 17.9 19.0795 17.9 18.9791C18 18.8787 18 18.8787 18 18.7782V10.1423L12.2 5.72385C12.1 5.72385 12.1 5.62343 12 5.62343C11.9 5.62343 11.9 5.62343 11.8 5.72385L6 10.1423V18.7782C6 18.8787 6 18.9791 6.1 18.9791C6.1 19.0795 6.2 19.0795 6.3 19.0795ZM6.3 19.0795H6H18H6.3Z" fill="#9B7568"/>
<path d="M12 17.9749C11.4 17.9749 10.8 17.8745 10.3 17.6736C9.8 17.4728 9.3 17.1715 8.9 16.7699C8.5 16.3682 8.2 15.9665 8 15.364C7.8 14.8619 7.7 14.2594 7.7 13.6569C7.7 13.0544 7.8 12.5523 8 12.0502C8.2 11.5481 8.5 11.046 8.9 10.6444C9.3 10.2427 9.7 9.94142 10.3 9.74059C10.8 9.53975 11.4 9.43933 12 9.43933C12.6 9.43933 13.2 9.53975 13.7 9.74059C14.2 9.94142 14.7 10.2427 15.1 10.6444C15.5 11.046 15.8 11.4477 16 12.0502C16.2 12.5523 16.3 13.1548 16.3 13.7573C16.3 14.3598 16.2 14.9623 16 15.4644C15.8 15.9665 15.5 16.4686 15.1 16.8703C14.7 17.272 14.3 17.5732 13.7 17.7741C13.1 17.9749 12.6 17.9749 12 17.9749ZM12 16.7699C12.1 16.7699 12.2 16.7699 12.3 16.6695C12.4 16.569 12.4 16.4686 12.4 16.3682V16.1674C12.8 16.0669 13.1 15.9665 13.3 15.7657C13.6 15.5649 13.7 15.2636 13.7 14.7615C13.7 14.4603 13.6 14.159 13.4 13.9582C13.2 13.6569 12.9 13.4561 12.4 13.2552C12 13.1548 11.7 12.954 11.5 12.8536C11.3 12.7531 11.3 12.5523 11.3 12.4519C11.3 12.251 11.4 12.1506 11.5 12.0502C11.6 11.9498 11.8 11.8494 12.1 11.8494C12.2 11.8494 12.4 11.8494 12.5 11.9498C12.6 12.0502 12.7 12.0502 12.8 12.1506C12.9 12.251 13 12.251 13 12.3515C13.1 12.3515 13.2 12.3515 13.3 12.3515C13.4 12.3515 13.5 12.251 13.5 12.1506C13.5 12.0502 13.5 11.9498 13.5 11.8494C13.4 11.6485 13.2 11.5481 13.1 11.4477C12.9 11.3473 12.8 11.2469 12.6 11.2469V11.046C12.6 10.9456 12.6 10.8452 12.5 10.7448C12.4 10.6444 12.3 10.6444 12.2 10.6444C12.1 10.6444 12 10.6444 11.9 10.7448C11.8 10.8452 11.8 10.9456 11.8 11.046V11.2469C11.4 11.3473 11.2 11.4477 11 11.749C10.8 11.9498 10.7 12.251 10.7 12.5523C10.7 12.8536 10.8 13.1548 11 13.3556C11.2 13.5565 11.5 13.7573 11.9 13.8577C12.4 14.0586 12.7 14.159 12.8 14.2594C13 14.3598 13.1 14.5607 13.1 14.7615C13.1 14.9623 13 15.1632 12.8 15.2636C12.6 15.364 12.4 15.4644 12.2 15.4644C12 15.4644 11.8 15.4644 11.7 15.364C11.5 15.2636 11.4 15.1632 11.3 14.9623C11.2 14.8619 11.2 14.7615 11.1 14.7615C11 14.7615 10.9 14.7615 10.8 14.7615C10.7 14.7615 10.6 14.8619 10.6 14.9623C10.6 15.0628 10.6 15.1632 10.6 15.2636C10.7 15.4644 10.9 15.6653 11.1 15.8661C11.3 16.0669 11.5 16.1674 11.8 16.1674V16.3682C11.8 16.4686 11.8 16.569 11.9 16.6695C12 16.7699 11.9 16.7699 12 16.7699Z" fill="#9B7568"/>
</g>
<defs>
<clipPath id="clip0_1_48">
<rect width="24" height="24" fill="white"/>
</clipPath>
</defs>
</svg>
