<svg width="24" height="24" viewBox="0 0 24 24" fill="none" xmlns="http://www.w3.org/2000/svg">
<path fill-rule="evenodd" clip-rule="evenodd" d="M6.20974 11.6989L12.0146 5.89401C12.2733 5.63533 12.6927 5.63533 12.9514 5.894L15.9422 8.8848C16.2008 9.14347 16.2008 9.56286 15.9422 9.82154L10.1373 15.6264C9.8786 15.8851 9.45921 15.8851 9.20053 15.6264L6.20974 12.6356C5.95107 12.3769 5.95107 11.9576 6.20974 11.6989ZM5.00766 13.8377C4.08509 12.9151 4.08509 11.4194 5.00766 10.4968L10.8125 4.69192C11.7351 3.76936 13.2309 3.76936 14.1534 4.69192L17.1442 7.68272C18.0668 8.60528 18.0668 10.1011 17.1442 11.0236L16.2458 11.9221L19.064 14.7402C20.1707 15.847 20.1707 17.6414 19.064 18.7482C17.9572 19.8549 16.1628 19.8549 15.056 18.7482L12.2378 15.93L11.3394 16.8285C10.4168 17.7511 8.92102 17.7511 7.99845 16.8285L5.00766 13.8377ZM13.4399 14.7279L16.2581 17.5461C16.701 17.989 17.419 17.989 17.8619 17.5461C18.3048 17.1032 18.3048 16.3852 17.8619 15.9423L15.0437 13.1241L13.4399 14.7279Z" fill="#9B7568"/>
<path d="M4 20H9" stroke="#9B7568" stroke-width="1.7" stroke-linecap="round"/>
</svg>
