<svg width="24" height="24" viewBox="0 0 24 24" fill="none" xmlns="http://www.w3.org/2000/svg">
<path d="M7.87502 6.74618L10.5788 3.19811C10.7583 2.95792 10.9715 2.78153 11.2183 2.66893C11.4651 2.55633 11.7256 2.50003 12 2.50003C12.2744 2.50003 12.5349 2.55633 12.7817 2.66893C13.0285 2.78153 13.2417 2.95792 13.4212 3.19811L16.125 6.74618L20.2596 8.14233C20.6545 8.26926 20.9625 8.49317 21.1836 8.81406C21.4048 9.13496 21.5154 9.48944 21.5154 9.87751C21.5154 10.0566 21.4892 10.2352 21.4368 10.4132C21.3845 10.5912 21.2985 10.7618 21.1788 10.925L18.4865 14.6615L18.5865 18.6269C18.6032 19.1535 18.4296 19.5973 18.0659 19.9584C17.7021 20.3194 17.2782 20.5 16.7942 20.5C16.7801 20.5 16.6128 20.4782 16.2923 20.4346L12 19.2038L7.7077 20.4346C7.62437 20.4679 7.53836 20.4871 7.44967 20.4923C7.36099 20.4974 7.27969 20.5 7.20577 20.5C6.71732 20.5 6.29233 20.3194 5.9308 19.9584C5.56927 19.5973 5.39683 19.1535 5.4135 18.6269L5.5135 14.6365L2.83657 10.925C2.71691 10.7612 2.6309 10.5899 2.57855 10.4112C2.5262 10.2325 2.50002 10.0537 2.50002 9.87501C2.50002 9.49789 2.60987 9.14717 2.82957 8.82286C3.04927 8.49852 3.35609 8.26848 3.75003 8.13273L7.87502 6.74618ZM8.80192 8.03846L4.23077 9.56153C4.13462 9.59358 4.06892 9.65929 4.03365 9.75866C3.9984 9.85802 4.01282 9.94938 4.07692 10.0327L7.02307 14.1904L6.91345 18.6577C6.90705 18.7667 6.94552 18.8532 7.02885 18.9173C7.11218 18.9814 7.20514 18.9974 7.30772 18.9654L12 17.6481L16.6923 18.9904C16.7949 19.0224 16.8878 19.0064 16.9712 18.9423C17.0545 18.8782 17.0929 18.7917 17.0865 18.6827L16.9769 14.1904L19.9231 10.0827C19.9872 9.99938 20.0016 9.90802 19.9664 9.80866C19.9311 9.70929 19.8654 9.64358 19.7692 9.61153L15.1981 8.03846L12.2404 4.13463C12.1827 4.0513 12.1026 4.00963 12 4.00963C11.8974 4.00963 11.8173 4.0513 11.7596 4.13463L8.80192 8.03846Z" fill="#9B7568"/>
</svg>
